<svg xmlns="http://www.w3.org/2000/svg" viewBox="0 0 100 100" x="0px" y="0px"><title>Artboard 79</title><path d="M88,28H86.21a1,1,0,0,0,0-.53L81.78,12.55a1,1,0,0,0-1.24-.67L26.38,28l-.07,0H12a3,3,0,0,0-3,3V82a3,3,0,0,0,3,3H88a3,3,0,0,0,3-3V31A3,3,0,0,0,88,28Zm1,37H69.25A3.25,3.25,0,0,1,66,61.75V51.25A3.25,3.25,0,0,1,69.25,48H89ZM80.15,14.08,84.29,28h-51ZM88,83H12a1,1,0,0,1-1-1V31a1,1,0,0,1,1-1H88a1,1,0,0,1,1,1V46H69.25A5.26,5.26,0,0,0,64,51.25v10.5A5.26,5.26,0,0,0,69.25,67H89V82A1,1,0,0,1,88,83Z"></path><circle cx="76.23" cy="57.23" r="3.74"></circle><path d="M60,63H57V39a1,1,0,0,0-1-1H19a1,1,0,0,0-1,1V63H15a1,1,0,0,0-1,1v1.19A6.82,6.82,0,0,0,20.81,72H54.19A6.82,6.82,0,0,0,61,65.19V64A1,1,0,0,0,60,63ZM20,40H55V63H20ZM59,65.19A4.82,4.82,0,0,1,54.19,70H20.81A4.82,4.82,0,0,1,16,65.19V65H59Z"></path><path d="M39.5,67H34.88a1,1,0,0,0,0,2H39.5a1,1,0,0,0,0-2Z"></path><path d="M52,42H23a1,1,0,0,0-1,1V60a1,1,0,0,0,1,1H52a1,1,0,0,0,1-1V43A1,1,0,0,0,52,42ZM51,59H24V44H51Z"></path></svg>