<svg xmlns="http://www.w3.org/2000/svg" viewBox="0 0 100 100" x="0px" y="0px"><title>Artboard 81</title><path d="M88,28H86.37L81.78,12.55a1,1,0,0,0-1.24-.67L26.38,28l-.07,0H12a3,3,0,0,0-3,3V82a3,3,0,0,0,3,3H88a3,3,0,0,0,3-3V31A3,3,0,0,0,88,28Zm1,37H69.25A3.25,3.25,0,0,1,66,61.75V51.25A3.25,3.25,0,0,1,69.25,48H89ZM80.15,14.08,84.29,28h-51ZM88,83H12a1,1,0,0,1-1-1V31a1,1,0,0,1,1-1H88a1,1,0,0,1,1,1V46H69.25A5.26,5.26,0,0,0,64,51.25v10.5A5.26,5.26,0,0,0,69.25,67H89V82A1,1,0,0,1,88,83Z"></path><circle cx="76.23" cy="57.23" r="3.74"></circle><path d="M45,32H24a1,1,0,0,0-1,1V79a1,1,0,0,0,1,1H45a1,1,0,0,0,1-1V33A1,1,0,0,0,45,32ZM44,78H25V34H44Z"></path><path d="M30,75h8a1,1,0,0,0,1-1V69a1,1,0,0,0-1-1H30a1,1,0,0,0-1,1v5A1,1,0,0,0,30,75Zm1-5h6v3H31Z"></path><path d="M30,39h8a1,1,0,0,0,0-2H30a1,1,0,0,0,0,2Z"></path><path d="M30,44h8a1,1,0,0,0,0-2H30a1,1,0,0,0,0,2Z"></path></svg>